<?xml version="1.0" encoding="UTF-8" standalone="no"?>
<!-- Created with Inkscape (http://www.inkscape.org/) -->

<svg
   width="180"
   height="180"
   viewBox="0 0 180 180"
   version="1.1"
   id="svg5"
   sodipodi:docname="icon.svg"
   inkscape:version="1.1.2 (b8e25be833, 2022-02-05)"
   xmlns:inkscape="http://www.inkscape.org/namespaces/inkscape"
   xmlns:sodipodi="http://sodipodi.sourceforge.net/DTD/sodipodi-0.dtd"
   xmlns="http://www.w3.org/2000/svg"
   xmlns:svg="http://www.w3.org/2000/svg">
  <sodipodi:namedview
     id="namedview7"
     pagecolor="#ffffff"
     bordercolor="#666666"
     borderopacity="1.0"
     inkscape:pageshadow="2"
     inkscape:pageopacity="0.0"
     inkscape:pagecheckerboard="0"
     inkscape:document-units="px"
     showgrid="false"
     inkscape:zoom="3.2644763"
     inkscape:cx="78.266765"
     inkscape:cy="79.64524"
     inkscape:window-width="1920"
     inkscape:window-height="1017"
     inkscape:window-x="-8"
     inkscape:window-y="-8"
     inkscape:window-maximized="1"
     inkscape:current-layer="layer1" />
  <defs
     id="defs2" />
  <g
     inkscape:label="Layer 1"
     inkscape:groupmode="layer"
     id="layer1">
    <path
       style="fill:#ffffff;stroke-width:2.2069;fill-opacity:1;stroke:#000000;stroke-opacity:0.33000001"
       d="m 43.65517,128.6207 c 0,-2.2069 -2.20689,-3.31035 -6.62069,-3.31035 -6.252871,0 -6.620688,-0.49042 -6.620688,-8.82758 0,-4.85518 -0.993104,-8.82759 -2.206896,-8.82759 -1.287356,0 -2.206898,-7.35632 -2.206898,-17.655185 0,-10.298848 0.919541,-17.655169 2.206898,-17.655169 1.213792,0 2.206896,-3.972414 2.206896,-8.827586 0,-8.337165 0.367816,-8.827585 6.620688,-8.827585 4.4138,0 6.620689,-1.103449 6.620689,-3.310345 0,-2.390804 2.45211,-3.310345 8.82759,-3.310345 6.37548,0 8.82759,0.919541 8.82759,3.310345 0,1.820689 -0.99311,3.310345 -2.206899,3.310345 -1.213791,0 -2.2069,1.489655 -2.2069,3.310344 0,1.82069 -1.48965,3.310345 -3.31034,3.310345 -2.05977,0 -3.31035,2.084289 -3.31035,5.51724 0,3.432952 -1.25058,5.517242 -3.31034,5.517242 -2.66666,0 -3.31035,3.432951 -3.31035,17.655169 0,14.222235 0.64369,17.655185 3.31035,17.655185 2.20689,0 3.31034,2.2069 3.31034,6.62069 0,3.64138 1.06404,6.62069 2.36454,6.62069 3.05538,0 8.66995,5.61455 8.66995,8.66995 0,1.30049 -3.97242,2.36453 -8.82759,2.36453 -6.37548,0 -8.82759,-0.91954 -8.82759,-3.31034 z m 24.27586,-11.03449 c 0,-2.05977 -2.0843,-3.31034 -5.51724,-3.31034 -4.659,0 -5.51724,-1.02989 -5.51724,-6.62069 0,-4.41379 -1.10345,-6.62069 -3.31034,-6.62069 -2.50114,0 -3.31035,-2.697324 -3.31035,-11.034494 0,-8.33716 0.80921,-11.03448 3.31035,-11.03448 2.05976,0 3.31034,-2.08429 3.31034,-5.517241 0,-4.413793 1.10345,-5.517241 5.51724,-5.517241 3.43294,0 5.51724,-1.250576 5.51724,-3.310345 0,-2.501149 2.69732,-3.310345 11.03449,-3.310345 8.33717,0 11.03448,0.809196 11.03448,3.310345 0,2.206896 2.2069,3.310345 6.62069,3.310345 5.5908,0 6.62069,0.858237 6.62069,5.517241 0,3.432951 1.25058,5.517241 3.31034,5.517241 2.50115,0 3.31035,2.69732 3.31035,11.03448 0,8.33717 -0.8092,11.034494 -3.31035,11.034494 -2.20689,0 -3.31034,2.2069 -3.31034,6.62069 0,5.88506 -0.73563,6.62069 -6.62069,6.62069 -4.41379,0 -6.62069,1.10345 -6.62069,3.31034 0,2.50115 -2.69731,3.31035 -11.03448,3.31035 -8.33717,0 -11.03449,-0.8092 -11.03449,-3.31035 z m 64.55173,-19.918194 c -2.73104,-2.91687 -4.96552,-6.37713 -4.96552,-7.68947 0,-3.10872 10.1276,-13.219926 13.24138,-13.219926 3.12508,0 13.24138,10.116306 13.24138,13.241376 0,3.4267 -10.28107,13.267494 -13.6928,13.106414 -1.57241,-0.0742 -5.09341,-2.52151 -7.82444,-5.438394 z"
       id="path33" />
  </g>
</svg>
